# xmcd
#
# Track frame offsets:
#	150
#	13872
#	32646
#	47958
#	64061
#	83618
#	97621
#	110723
#	123925
#	143714
#	159801
#
# Disc length: 2407 seconds
#
# Revision: 1
# Processed by: cddbd v1.5.2PL0 Copyright (c) Steve Scherf et al.
# Submitted via: audiograbber 1.83.01
#
DISCID=8109650b
DTITLE=Leroy Powell - Leroy Powell
DYEAR=2007
DGENRE=Country Rock
TTITLE0=I Go To Extremes
TTITLE1=Vacation
TTITLE2=I Made The Nightlife Mine
TTITLE3=Keep The Diamond
TTITLE4=We Are Blessed
TTITLE5=If I Make It Trough The Week
TTITLE6=Don't Twist My Arm
TTITLE7=Easy To Fall
TTITLE8=I Put It All On Black
TTITLE9=How Can You Be Loving Me (When You Wake Up Next To Him)
TTITLE10=Gypsy Lady
EXTD=
EXTT0=
EXTT1=
EXTT2=
EXTT3=
EXTT4=
EXTT5=
EXTT6=
EXTT7=
EXTT8=
EXTT9=
EXTT10=
PLAYORDER=
